# xmcd
#
# Track frame offsets:
#	150
#	28683
#	57868
#	79663
#	104243
#	126758
#	152633
#	178147
#	204442
#	225948
#	249012
#	270159
#	296601
#	318238
#
# Disc length: 4636 seconds
#
# Revision: 1
# Processed by: cddbd v1.5.2PL0 Copyright (c) Steve Scherf et al.
# Submitted via: audiograbber 1.83.01
#
DISCID=b2121a0e
DTITLE=Bob Dylan - The Bootleg Series Vol. 13 1979-1981 Deluxe Edition: Trouble
DTITLE=No More [CD 1) - Live
DYEAR=2017
DGENRE=Rock
TTITLE0=Slow Train [live, San Francisco, CA - Nov. 16, 1979]
TTITLE1=Gotta Serve Somebody [live, San Francisco, CA - Nov. 15, 1979]
TTITLE2=I Believe In You [live, Pittsburgh, PA - May 16, 1980]
TTITLE3=When You Gonna Wake Up? [live, Oslo, Norway - Jul. 9, 1981]
TTITLE4=When He Returns [live, Albuquerque, NM - Dec. 5, 1979]
TTITLE5=Man Gave Names To All The Animals [live, Portland, OR - Jan. 16, 1980]
TTITLE6=Precious Angel [live, San Francisco, CA - Nov. 16, 1979]
TTITLE7=Covenant Woman [live, Santa Monica, CA - Nov. 20, 1979]
TTITLE8=Gonna Change My Way Of Thinking [live, Memphis, TN - Jan. 31, 1980]
TTITLE9=Do Right To Me Baby (Do Unto Others) [live, Kansas City, MO - Jan. 28, 
TTITLE9=1980]
TTITLE10=Solid Rock [live, San Diego, CA - Nov. 27, 1979]
TTITLE11=What Can I Do For You? [live, San Diego, CA - Nov. 27, 1979]
TTITLE12=Saved [live 1-12 - 80, Portland, OR - Jan. 12, 1980]
TTITLE13=In The Garden [live, Kansas City, MO - Jan. 27, 1980]
EXTD=
EXTT0=
EXTT1=
EXTT2=
EXTT3=
EXTT4=
EXTT5=
EXTT6=
EXTT7=
EXTT8=
EXTT9=
EXTT10=
EXTT11=
EXTT12=
EXTT13=
PLAYORDER=
